<svg xmlns="http://www.w3.org/2000/svg" viewBox="0 0 320 240" width="320" height="240"><rect x="1" y="1" width="318" height="238" rx="14" fill="#fff" stroke="#d9d2c5" stroke-width="2"/><circle cx="68" cy="48" r="15" fill="#d55e00" stroke="#2c2a28" stroke-width="2"/><path d="M68 33Q69 26 74 24" fill="none" stroke="#2c2a28" stroke-width="3" stroke-linecap="round"/><circle cx="114" cy="48" r="15" fill="#d55e00" stroke="#2c2a28" stroke-width="2"/><path d="M114 33Q115 26 120 24" fill="none" stroke="#2c2a28" stroke-width="3" stroke-linecap="round"/><circle cx="160" cy="48" r="15" fill="#d55e00" stroke="#2c2a28" stroke-width="2"/><path d="M160 33Q161 26 166 24" fill="none" stroke="#2c2a28" stroke-width="3" stroke-linecap="round"/><circle cx="206" cy="48" r="15" fill="#d55e00" stroke="#2c2a28" stroke-width="2"/><path d="M206 33Q207 26 212 24" fill="none" stroke="#2c2a28" stroke-width="3" stroke-linecap="round"/><circle cx="252" cy="48" r="15" fill="#d55e00" stroke="#2c2a28" stroke-width="2"/><path d="M252 33Q253 26 258 24" fill="none" stroke="#2c2a28" stroke-width="3" stroke-linecap="round"/><circle cx="68" cy="94" r="15" fill="#d55e00" stroke="#2c2a28" stroke-width="2"/><path d="M68 79Q69 72 74 70" fill="none" stroke="#2c2a28" stroke-width="3" stroke-linecap="round"/><circle cx="114" cy="94" r="15" fill="#d55e00" stroke="#2c2a28" stroke-width="2"/><path d="M114 79Q115 72 120 70" fill="none" stroke="#2c2a28" stroke-width="3" stroke-linecap="round"/><circle cx="160" cy="94" r="15" fill="#d55e00" stroke="#2c2a28" stroke-width="2"/><path d="M160 79Q161 72 166 70" fill="none" stroke="#2c2a28" stroke-width="3" stroke-linecap="round"/><circle cx="206" cy="94" r="15" fill="#d55e00" stroke="#2c2a28" stroke-width="2"/><path d="M206 79Q207 72 212 70" fill="none" stroke="#2c2a28" stroke-width="3" stroke-linecap="round"/><circle cx="252" cy="94" r="15" fill="#d55e00" stroke="#2c2a28" stroke-width="2"/><path d="M252 79Q253 72 258 70" fill="none" stroke="#2c2a28" stroke-width="3" stroke-linecap="round"/><circle cx="68" cy="154" r="15" fill="#d55e00" stroke="#2c2a28" stroke-width="2"/><path d="M68 139Q69 132 74 130" fill="none" stroke="#2c2a28" stroke-width="3" stroke-linecap="round"/><circle cx="114" cy="154" r="15" fill="#d55e00" stroke="#2c2a28" stroke-width="2"/><path d="M114 139Q115 132 120 130" fill="none" stroke="#2c2a28" stroke-width="3" stroke-linecap="round"/><circle cx="160" cy="154" r="15" fill="#d55e00" stroke="#2c2a28" stroke-width="2"/><path d="M160 139Q161 132 166 130" fill="none" stroke="#2c2a28" stroke-width="3" stroke-linecap="round"/><circle cx="206" cy="154" r="15" fill="#d55e00" stroke="#2c2a28" stroke-width="2"/><path d="M206 139Q207 132 212 130" fill="none" stroke="#2c2a28" stroke-width="3" stroke-linecap="round"/><circle cx="252" cy="154" r="15" fill="#d55e00" stroke="#2c2a28" stroke-width="2"/><path d="M252 139Q253 132 258 130" fill="none" stroke="#2c2a28" stroke-width="3" stroke-linecap="round"/><circle cx="68" cy="200" r="15" fill="#d55e00" stroke="#2c2a28" stroke-width="2"/><path d="M68 185Q69 178 74 176" fill="none" stroke="#2c2a28" stroke-width="3" stroke-linecap="round"/><circle cx="114" cy="200" r="15" fill="#d55e00" stroke="#2c2a28" stroke-width="2"/><path d="M114 185Q115 178 120 176" fill="none" stroke="#2c2a28" stroke-width="3" stroke-linecap="round"/><circle cx="160" cy="200" r="15" fill="#d55e00" stroke="#2c2a28" stroke-width="2"/><path d="M160 185Q161 178 166 176" fill="none" stroke="#2c2a28" stroke-width="3" stroke-linecap="round"/><circle cx="206" cy="200" r="15" fill="#d55e00" stroke="#2c2a28" stroke-width="2"/><path d="M206 185Q207 178 212 176" fill="none" stroke="#2c2a28" stroke-width="3" stroke-linecap="round"/><circle cx="252" cy="200" r="15" fill="#d55e00" stroke="#2c2a28" stroke-width="2"/><path d="M252 185Q253 178 258 176" fill="none" stroke="#2c2a28" stroke-width="3" stroke-linecap="round"/></svg>